<?xml version="1.0" encoding="utf-8"?>
<svg version="1.1" id="Layer_1" xmlns="http://www.w3.org/2000/svg" xmlns:xlink="http://www.w3.org/1999/xlink" x="0px" y="0px"
	 viewBox="0 0 1200 630" style="enable-background:new 0 0 1200 630;" xml:space="preserve">
<style type="text/css">
	.st0{fill:#F9FDFF;}
	.st1{display:none;fill:#FFFFFF;stroke:#000000;}
	.st2{fill:#E03D3D;stroke:#000000;stroke-width:10;}
	.st3{fill:#FFFFFF;stroke:#000000;stroke-width:10;}
	.st4{fill:#333333;stroke:#000000;stroke-width:2;stroke-linecap:round;stroke-linejoin:round;}
	.st5{fill:#DA15FF;stroke:#000000;stroke-width:2;stroke-linecap:round;stroke-linejoin:round;}
	.st6{fill:#FFA655;stroke:#000000;stroke-width:2;stroke-linecap:round;stroke-linejoin:round;}
	.st7{fill:#7FC7FF;stroke:#000000;stroke-width:2;stroke-linecap:round;stroke-linejoin:round;}
	.st8{fill:#FAFF94;stroke:#000000;stroke-width:2;stroke-linecap:round;stroke-linejoin:round;}
	.st9{fill:#8AFFC2;stroke:#000000;stroke-width:2;stroke-linecap:round;stroke-linejoin:round;}
	.st10{fill:#FFD694;stroke:#000000;stroke-width:2;stroke-linecap:round;stroke-linejoin:round;}
	.st11{fill:#FD94FF;stroke:#000000;stroke-width:2;stroke-linecap:round;stroke-linejoin:round;}
	.st12{fill:#FF5559;stroke:#000000;stroke-width:2;stroke-linecap:round;stroke-linejoin:round;}
	.st13{fill:#DF0000;stroke:#000000;stroke-width:2;stroke-linecap:round;stroke-linejoin:round;}
	.st14{fill:#FFFFFF;stroke:#000000;stroke-width:2;}
	.st14{font-family:'Arial';}
	.st15{font-size:79.4777px;}
	.st16{font-family:'Arial';font-style: italic}
	.st17{font-family:'Arial';font-weight: bold}
</style>
<rect class="st0" width="1200" height="630"/>
<circle class="st1" cx="672.3" cy="242.7" r="72.3"/>
<g>
	<path class="st2" d="M327.6,241.5h-224c0-61.8,50.1-112,112-112C277.4,129.6,327.6,179.8,327.6,241.5z"/>
	<path class="st3" d="M327.6,241.5c0,61.8-50.1,112-112,112c-61.8,0-112-50.1-112-112L327.6,241.5L327.6,241.5z"/>
	<path class="st2" d="M327.6,241.5h-224c0-61.8,50.1-112,112-112C277.4,129.6,327.6,179.8,327.6,241.5z"/>
	<circle class="st3" cx="215.7" cy="241.5" r="25.2"/>
</g>
<g>
	<path class="st4" d="M368.4,414.9h-75.1c-3.2,0-5.9-2.6-5.9-5.9V277.2c0-3.2,2.6-5.9,5.9-5.9h75.1c3.2,0,5.9,2.6,5.9,5.9V409
		C374.4,412.2,371.8,414.9,368.4,414.9z"/>
	<rect x="296.2" y="288.7" class="st5" width="17.4" height="17.4"/>
	<rect x="322.3" y="288.7" class="st6" width="17.4" height="17.4"/>
	<rect x="347.6" y="288.7" class="st7" width="17.4" height="17.4"/>
	<rect x="296.6" y="321.2" class="st8" width="17.4" height="17.4"/>
	<rect x="322.6" y="321.2" class="st9" width="17.4" height="17.4"/>
	<rect x="347.9" y="321.2" class="st10" width="17.4" height="17.4"/>
	<rect x="296.6" y="353.9" class="st11" width="17.4" height="17.4"/>
	<rect x="322.6" y="353.9" class="st12" width="17.4" height="17.4"/>
	<rect x="347.9" y="353.9" class="st13" width="17.4" height="17.4"/>
	<circle class="st14" cx="331.4" cy="397.9" r="9.8"/>
</g>
<text transform="matrix(1 0 0 1 428.1968 346.7821)" class="st15 st16">Pokécompanion</text>
<text transform="matrix(1 0 0 1 428.1968 452.8768)" class="st17 st16"></text>
<text transform="matrix(1 0 0 1 428.1968 233.3236)" class="st18 st16"></text>
</svg>
